<svg width="588.14077" height="694.96997" xmlns="http://www.w3.org/2000/svg" data-name="Layer 1">

 <g>
  <title>Layer 1</title>
  <path id="svg_1" fill="#d1d5db" d="m256.49076,659.35999l-1.87,8.18l0.45,0.49c-0.1,0.25 -0.2,0.5 -0.32,0.75a57.644,57.644 0 0 1 -3.4,6.52c-1.68,2.79 -3.56,5.48 -5.51,8.12c-1.07,1.46 -2.17,2.91 -3.27,4.35a1.20684,1.20684 0 0 1 -0.1,0.14a0.87877,0.87877 0 0 1 0.05,-0.15l-0.36,-0.08l-2.07,-8.98l-0.63,1.42l0,0.01l-1.02,2.35c0.08,0.43 0.16,0.85 0.26,1.27c-0.01,-0.01 -0.01,-0.03 -0.02,-0.04c-0.01,-0.01 -0.01,-0.01 -0.01,-0.02c-0.13,-0.28 -0.27,-0.55 -0.4,-0.83l-1.56,3.58l-3.16,-0.72c-1.66,-0.86 -3.32,-1.73 -4.97,-2.63c-22.54,-12.23 -43.41,-27.84 -57.46,-49.09a96.90444,96.90444 0 0 1 -12.51,-27.53c-5.33,-19.42 -4.41,-40.32 5.29,-57.67a0.0098,0.0098 0 0 1 0.01,-0.01q0.36,-0.66 0.75,-1.32c0.19,0.5 0.37,1 0.57,1.5l0,0.01a136.268,136.268 0 0 0 9.41,19.65c0.28,0.49 0.56,0.98 0.86,1.46a140.97617,140.97617 0 0 0 34.32,38.94a1.05944,1.05944 0 0 0 0.12,0.1a1.43666,1.43666 0 0 0 0.15,0.11q4.59,3.6 9.49,6.77l0,0.01c2.55,1.66 5.17,3.23 7.83,4.72c5.67,3.16 11.84,6.2 17.14,9.99c5.15,3.67 9.49,8.04 11.8,13.89c0.18,0.47 0.35,0.94 0.5,1.41l-4.12,12.71l3.76,0.62z"/>
  <path id="svg_2" fill="#fff" d="m239.46079,680.11999l0,0.01l-1.02,2.35c-1.54,-8.56 0.29,-17.61 -0.98,-26.28c-0.14,-0.97 -0.32,-1.94 -0.55,-2.9c-1.30005,-5.48 -4.27,-10.61 -9.55005,-13.06a21.8476,21.8476 0 0 0 -4.81995,-1.55c-3.28,-0.7 -6.7,-0.85 -10.01,-1.24c-0.83,-0.1 -1.65,-0.21 -2.45,-0.36005a30.08933,30.08933 0 0 1 -11.98,-4.63a47.71988,47.71988 0 0 1 -11.4,-11.46a102.33333,102.33333 0 0 1 -5.75,-8.66c-0.24,-0.38 -0.46,-0.77 -0.69,-1.16a121.34464,121.34464 0 0 1 -10.13,-22.6a118.53179,118.53179 0 0 1 -3.36,-12.24a121.36825,121.36825 0 0 1 -2.87,-27.54a0.0098,0.0098 0 0 1 0.01,-0.01c-0.01,-0.42 0,-0.84 0.01,-1.26c0.02,-0.86 1.35,-0.67 1.33,0.19c-0.01,0.42 -0.02,0.83 -0.02,1.25l0,0.01a120.88811,120.88811 0 0 0 2.67,26.4c0.1,0.44 0.2,0.88 0.29,1.32a119.7122,119.7122 0 0 0 13.47,34.19c0.07,0.12 0.13995,0.24 0.22,0.36c1.45,2.47 3.01,4.87 4.65,7.22a51.89835,51.89835 0 0 0 10.98,11.92a28.66609,28.66609 0 0 0 12.16,5.27c0.43995,0.08 0.88,0.16 1.33,0.23c0.35,0.06 0.71,0.11 1.07,0.15c3.37,0.42 6.83,0.58 10.18,1.22a26.991,26.991 0 0 1 4.47,1.25a18.15217,18.15217 0 0 1 10.32,10.68a31.58305,31.58305 0 0 1 1.81995,7.25c0.11,0.81 0.19,1.62 0.26,2.44l0,0.01c0.1,1.31995 0.15,2.65 0.17,3.98c0.02,1.66 -0.01,3.32 -0.05005,4.97a85.3029,85.3029 0 0 0 0.2201,12.28005z"/>
  <path id="svg_3" fill="#fff" d="m181.51974,612.06011a18.01813,18.01813 0 0 1 -22.69434,-5.41582c-0.50869,-0.69934 0.55415,-1.52268 1.06352,-0.82241a16.6844,16.6844 0 0 0 21.12074,4.9947c0.76923,-0.39533 1.27487,0.85047 0.51,1.24353l0.00008,0z"/>
  <path id="svg_4" fill="#fff" d="m209.54049,636.05957a34.72846,34.72846 0 0 0 -1.22951,-25.27921c-0.35484,-0.78953 0.88912,-1.29863 1.24354,-0.51005a36.12283,36.12283 0 0 1 1.22593,26.30791c-0.27855,0.82057 -1.517,0.29746 -1.24,-0.51865l0.00004,0z"/>
  <path id="svg_5" fill="#fff" d="m167.51247,575.50387a10.1991,10.1991 0 0 0 7.02237,-6.65924c0.268,-0.8237 1.50625,-0.29968 1.24,0.51865a11.42892,11.42892 0 0 1 -7.75229,7.38412a0.6946,0.6946 0 0 1 -0.87679,-0.36674a0.67543,0.67543 0 0 1 0.36674,-0.87679l-0.00003,0z"/>
  <path id="svg_6" fill="#d1d5db" d="m242.41081,687.98999c0.01995,-0.03 0.04,-0.05 0.06,-0.08c-0.04,0.12 -0.08,0.24 -0.11,0.37l0.05,-0.29z"/>
  <path id="svg_7" fill="#d1d5db" d="m272.14079,626.42999l-1.4,4.9l-8.6,-1.61l-2.85,8.79l-0.49,1.51l-1.95,6.01l-4.12,12.71l3.76,0.62l-1.87,8.18l0.45,0.49l0.14,0.15l0.93,1.02l5.66,6.18l-15.48,13.25l-2.48,-0.57l-1.27,-0.29a1.20684,1.20684 0 0 1 -0.1,0.14a0.87877,0.87877 0 0 1 0.05,-0.15l-0.36,-0.08l-2.07,-8.98l-0.63,1.42l0,0.01l-1.02,2.35c0.08,0.43 0.16,0.85 0.26,1.27c-0.01,-0.01 -0.01,-0.03 -0.02,-0.04c-0.01,-0.01 -0.01,-0.01 -0.01,-0.02c-0.13,-0.28 -0.27,-0.55 -0.4,-0.83c-1.98,-4.13 -3.87,-8.32 -5.62,-12.56a184.48557,184.48557 0 0 1 -10.11,-31.61c-0.1,-0.47 -0.21,-0.94 -0.29,-1.42l0,-0.01a131.23411,131.23411 0 0 1 -2.67,-21.24l0,-0.01a114.85052,114.85052 0 0 1 0.12,-11.73a96.392,96.392 0 0 1 6.57,-29.43c0.02,-0.05 0.04,-0.09 0.06,-0.14c7.13,-17.94 19.68,-33.5 36.74,-41.79c0.71,-0.36 1.44,-0.7 2.17,-1.02l0.02,0l0.01,-0.01c0.46,-0.2 0.91,-0.39 1.37,-0.59c-0.15,0.52 -0.31,1.04 -0.45,1.57a133.75043,133.75043 0 0 0 -4.32,21.35l0,0.01c-0.08,0.55 -0.15,1.12 -0.21,1.68l0,0.01a141.58428,141.58428 0 0 0 4.01995,51.96c0.01,0.05 0.03,0.09 0.04,0.13995a135.98826,135.98826 0 0 0 6.42005,18.41005z"/>
  <path id="svg_8" fill="#fff" d="m256.14079,669.19999c-0.79,1.06 -1.6,2.09 -2.42,3.12c-0.79,0.99 -1.58,1.98 -2.37,2.98a57.41827,57.41827 0 0 0 -5.51,8.12a28.47175,28.47175 0 0 0 -2,4.64l-1.27,-0.29a1.20684,1.20684 0 0 1 -0.1,0.14a0.87877,0.87877 0 0 1 0.05,-0.15c2.33,-7.28 7.63,-12.92 12.23,-18.98c0.16,-0.2 0.31,-0.4 0.46,-0.6l0.93,1.02z"/>
  <path id="svg_9" fill="#fff" d="m266.9708,531.85999c-0.26,0.33 -0.53,0.67 -0.78,1.01q-2.925,3.795 -5.53,7.83a117.99176,117.99176 0 0 0 -8.22,14.85c-0.19,0.4 -0.38,0.81 -0.56,1.22a119.26327,119.26327 0 0 0 -9.84,35.44c-0.02,0.12 -0.03,0.23 -0.04,0.35q-0.49494,4.29 -0.64,8.61a51.7824,51.7824 0 0 0 1.59,16.12c0.2,0.69 0.42,1.37 0.66,2.03a27.34479,27.34479 0 0 0 2.25,4.65a27.9227,27.9227 0 0 0 2.14,3.09c0.47,0.6 0.96,1.19 1.48,1.76c0.3,0.33 0.61,0.66 0.92,0.99c0.26,0.25 0.51,0.51 0.77,0.76c2.7,2.62 5.68,5.05 8.12,7.94l-0.49,1.51c-2.35,-2.98 -5.38,-5.45 -8.11,-8.05a37.89748,37.89748 0 0 1 -4.66,-5.28c-0.18,-0.26 -0.37,-0.52 -0.54,-0.79a26.749,26.749 0 0 1 -2.38995,-4.29c-0.34,-0.75 -0.65,-1.52 -0.93,-2.32a47.89267,47.89267 0 0 1 -2.2,-16a103.41482,103.41482 0 0 1 0.62,-10.39c0.04,-0.45 0.09,-0.89 0.15,-1.34a121.6383,121.6383 0 0 1 5.52,-24.14a122.65961,122.65961 0 0 1 13.76,-28.18q2.475,-3.765 5.25,-7.35c0.24,-0.33 0.49,-0.65 0.75,-0.98c0.52991,-0.68 1.47992,0.27 0.94995,0.95z"/>
  <path id="svg_10" fill="#fff" d="m241.21681,593.02636a18.01811,18.01811 0 0 1 -14.85941,-17.98776a0.67262,0.67262 0 0 1 1.34431,-0.01634a16.68439,16.68439 0 0 0 13.85658,16.70413c0.8522,0.14748 0.50587,1.44661 -0.34145,1.3l-0.00003,-0.00003z"/>
  <path id="svg_11" fill="#fff" d="m249.14048,629.05899a34.72845,34.72845 0 0 0 14.23814,-20.92427c0.192,-0.844 1.49177,-0.50157 1.3,0.34145a36.12277,36.12277 0 0 1 -14.86033,21.74348c-0.71645,0.48747 -1.39035,-0.67584 -0.67778,-1.16066l-0.00003,0z"/>
  <path id="svg_12" fill="#fff" d="m252.04217,555.40491a10.19909,10.19909 0 0 0 9.6163,-1.08908c0.70992,-0.49631 1.38308,0.66759 0.67778,1.16066a11.429,11.429 0 0 1 -10.63553,1.2284a0.69462,0.69462 0 0 1 -0.47926,-0.82071a0.67543,0.67543 0 0 1 0.82071,-0.47927z"/>
  <path id="svg_13" fill="#d1d5db" d="m394.60014,111.92753c-7.571,-40.52007 4.34872,-86.61852 37.47864,-111.14533a189.92246,189.92246 0 0 0 39.59323,124.23811c10.63431,13.63029 23.88146,27.68319 23.47,44.96635c-0.25582,10.754 -6.07175,20.77238 -13.736,28.31989c-7.66485,7.5477 -17.10628,12.98925 -26.43483,18.34614l-1.45212,2.25887c-27.34586,-30.84479 -51.34795,-66.46396 -58.91892,-106.98403z"/>
  <path id="svg_14" fill="#fff" d="m432.68245,1.40165a162.33255,162.33255 0 0 0 -10.71652,99.30007c1.533,7.14727 3.7101,14.26418 7.40239,20.61408a40.09421,40.09421 0 0 0 15.14673,14.6917c5.78156,3.34071 12.08233,6.08837 16.95113,10.77632c5.132,4.94135 7.41737,11.68538 7.22683,18.7316c-0.23313,8.62125 -3.55011,16.64458 -7.06651,24.378c-3.90429,8.58649 -8.09566,17.44331 -7.84245,27.09691c0.03068,1.16966 -1.78605,1.14888 -1.81668,-0.019c-0.44054,-16.79561 11.70217,-30.28435 14.40782,-46.4004c1.26251,-7.52 0.26641,-15.46612 -5.02054,-21.29522c-4.62321,-5.09729 -11.11819,-7.93626 -17.00138,-11.26821c-6.17744,-3.4986 -11.43648,-7.82109 -15.34548,-13.8135c-3.99869,-6.12991 -6.45863,-13.1767 -8.16761,-20.25343a157.49128,157.49128 0 0 1 -3.56967,-49.09351a165.21111,165.21111 0 0 1 13.85289,-54.37875c0.47608,-1.0646 2.032,-0.12431 1.559,0.93334l0.00005,0z"/>
  <path id="svg_15" fill="#fff" d="m419.09425,90.07763a24.355,24.355 0 0 1 -25.40911,-18.68088c-0.26554,-1.13836 1.49094,-1.60448 1.75684,-0.4646a22.55223,22.55223 0 0 0 23.67129,17.3288c1.16575,-0.08762 1.14006,1.72956 -0.019,1.81668l-0.00002,0z"/>
  <path id="svg_16" fill="#fff" d="m441.36048,134.69971a46.9424,46.9424 0 0 0 11.76612,-32.12319c-0.02654,-1.16974 1.79017,-1.14931 1.81667,0.019a48.82722,48.82722 0 0 1 -12.31165,33.40221c-0.77848,0.87521 -2.04538,-0.42758 -1.27114,-1.298l0,-0.00002z"/>
  <path id="svg_17" fill="#fff" d="m420.8819,37.19163a13.78612,13.78612 0 0 0 12.24672,-4.598c0.767,-0.88464 2.03314,0.41915 1.27114,1.298a15.44848,15.44848 0 0 1 -13.53688,5.1166a0.9389,0.9389 0 0 1 -0.89883,-0.91784a0.913,0.913 0 0 1 0.91785,-0.89883l0,0.00007z"/>
  <path id="svg_18" fill="#d1d5db" d="m567.56158,34.29841c-0.46321,0.566 -0.92643,1.132 -1.38569,1.71288a181.55558,181.55558 0 0 0 -16.61657,24.31563c-0.38711,0.65443 -0.76957,1.32347 -1.13707,1.98766a191.40035,191.40035 0 0 0 -22.33268,66.83541a185.8738,185.8738 0 0 0 -1.70413,28.19016c0.20468,13.01814 1.4624,27.11683 -2.528,39.08987a31.88566,31.88566 0 0 1 -1.436,3.676l-64.03404,20.40184c-0.1688,-0.02666 -0.33367,-0.03856 -0.50318,-0.065l-2.51944,0.93148c-0.04157,-0.48562 -0.07425,-0.99019 -0.11582,-1.47581c-0.02529,-0.2816 -0.03631,-0.56775 -0.0616,-0.84935c-0.01233,-0.18917 -0.024,-0.37866 -0.04594,-0.54866c-0.00434,-0.063 -0.008,-0.12613 -0.00768,-0.17455c-0.022,-0.17 -0.02428,-0.33024 -0.04157,-0.48562c-0.19045,-2.81988 -0.36667,-5.64438 -0.51289,-8.47835c-0.00466,-0.01462 -0.00466,-0.01462 0.005,-0.03379c-1.0991,-21.58414 -0.40591,-43.44967 3.584,-64.51486c0.12025,-0.63373 0.23513,-1.28186 0.38464,-1.92492a177.36546,177.36546 0 0 1 7.8437,-27.86114a156.7993,156.7993 0 0 1 6.3232,-14.55078a130.38868,130.38868 0 0 1 23.66929,-33.193c19.10321,-19.44335 44.21209,-32.56072 71.11666,-32.97376c0.68819,-0.01004 1.36288,-0.01589 2.05581,-0.01134z"/>
  <path id="svg_19" fill="#fff" d="m567.67656,35.15699a162.33255,162.33255 0 0 0 -68.342,72.83347c-3.07914,6.62965 -5.62572,13.62288 -6.50071,20.91593a40.09422,40.09422 0 0 0 3.24841,20.84988c2.6049,6.14827 5.98143,12.13562 7.04643,18.81c1.12256,7.03519 -1.11305,13.79589 -5.50749,19.30718c-5.37673,6.74322 -12.85575,11.15235 -20.31946,15.20995c-8.287,4.50517 -16.966,9.05335 -22.576,16.91366c-0.67972,0.95238 -2.11776,-0.158 -1.43906,-1.10895c9.76037,-13.67559 27.5768,-17.13484 39.44008,-28.37362c5.53563,-5.24421 9.52439,-12.18844 8.81257,-20.02575c-0.62245,-6.8534 -4.09907,-13.03058 -6.79041,-19.233c-2.82594,-6.51269 -4.42255,-13.13025 -3.93582,-20.26835c0.4979,-7.30187 2.77643,-14.4094 5.67258,-21.08869a157.49128,157.49128 0 0 1 26.7075,-41.34761a165.21084,165.21084 0 0 1 43.80052,-35.078c1.02108,-0.5634 1.69729,1.12415 0.68287,1.68387l-0.00001,0.00003z"/>
  <path id="svg_20" fill="#fff" d="m503.43808,97.77877a24.355,24.355 0 0 1 -9.04057,-30.21367c0.47335,-1.0688 2.15644,-0.38344 1.68246,0.68678a22.55224,22.55224 0 0 0 8.46706,28.08783c0.98355,0.6319 -0.131,2.06735 -1.109,1.43906l0.00005,0z"/>
  <path id="svg_21" fill="#fff" d="m494.35085,146.81281a46.9424,46.9424 0 0 0 28.735,-18.56455c0.68307,-0.95 2.12131,0.16015 1.43906,1.10895a48.82714,48.82714 0 0 1 -29.9406,19.25732c-1.14851,0.23012 -1.37569,-1.57285 -0.23342,-1.80172l-0.00004,0z"/>
  <path id="svg_22" fill="#fff" d="m536.7064,56.62855a13.78616,13.78616 0 0 0 12.54662,3.70216c1.145,-0.24456 1.371,1.55875 0.23342,1.80172a15.44851,15.44851 0 0 1 -13.889,-4.06482a0.93891,0.93891 0 0 1 -0.16505,-1.274a0.913,0.913 0 0 1 1.274,-0.165l0.00001,-0.00006z"/>
  <path id="svg_23" fill="#d1d5db" d="m156.07596,63.52181c-3.53831,-2.4976 -7.40948,-5.10206 -11.73917,-4.998c-10.47929,0.252 -16.12921,15.61415 -26.59771,15.07391c-6.676,-0.34454 -11.10783,-7.12648 -17.324,-9.58557c-8.09278,-3.20134 -18.39145,3.05971 -19.27433,11.71767l1.03931,-0.95123a250.9319,250.9319 0 0 0 96.13471,4.4412q-11.11928,-7.84897 -22.23881,-15.69798z"/>
  <circle id="svg_24" fill="#f472b6" r="36.36258" cy="45.63742" cx="175.68348"/>
  <path id="svg_25" fill="#d1d5db" d="m260.79929,38.69111c-4.50927,-3.183 -9.44275,-6.50214 -14.96056,-6.36945c-13.355,0.32114 -20.55529,19.89888 -33.89649,19.21039c-8.50805,-0.43908 -14.156,-9.08208 -22.0779,-12.216c-10.31354,-4.07983 -23.43831,3.89934 -24.56347,14.93317l1.32453,-1.21223a319.79088,319.79088 0 0 0 122.5154,5.65993q-14.17063,-10.00293 -28.34151,-20.00581z"/>
  <path id="svg_26" fill="#ccc" d="m587.88256,403.71893l-38.589,-206.6191a15.30459,15.30459 0 0 0 -14.5341,-12.38451q-0.46807,-0.01041 -0.93615,0l-26.28762,0.943l-2.82918,0.104l-13.11954,0.47152l-2.82917,0.09709l-8.43894,0.30511l-170.16586,6.10912c-0.25656,0.01384 -0.52007,0.01384 -0.77663,0.0069l-38.13129,-0.79741l-14.11113,-0.29123l-0.45074,-0.00694l-10.41522,-0.2219l-90.75513,-1.88613l-24.06172,-0.50618l-11.86449,-0.24268l-2.843,-0.06243l-13.52868,-0.27739l-2.83607,-0.06238l-13.84073,-0.28433l-2.83611,-0.06238l-15.20675,-0.319l-2.38538,-0.04855l-13.56334,-0.28428l-2.14265,-0.0416l-0.312,0a15.263,15.263 0 0 0 -14.99179,12.7451l-34.9,214.40622a15.18177,15.18177 0 0 0 14.98485,17.62679l200.42681,0a13.88889,13.88889 0 0 1 8.19626,2.70436l3.79994,2.8153a15.32026,15.32026 0 0 0 9.03527,2.9817l118.11759,0a15.09079,15.09079 0 0 0 10.74111,-4.4518a13.7781,13.7781 0 0 1 9.01449,-4.0149l199.23414,-10.49843a15.18288,15.18288 0 0 0 14.13195,-17.95267l0,0.00001z"/>
  <path id="svg_27" fill="#e6e6e6" d="m556.30412,398.10218l-21.51,-213.10952c-0.00694,-0.0901 -0.02082,-0.18719 -0.03466,-0.27734a13.5326,13.5326 0 0 0 -4.70143,-8.744l-46.27206,-38.54737a12.27574,12.27574 0 0 0 -7.13535,-2.85c-21.17016,-1.35912 -128.79627,-6.39337 -168.52242,28.09055a10.936,10.936 0 0 1 -8.88968,2.55179a11.1356,11.1356 0 0 1 -7.71086,-5.17294a45.57012,45.57012 0 0 0 -13.00167,-13.25824a69.16331,69.16331 0 0 0 -7.28093,-4.41709c-2.2259,-1.17189 -4.64594,-2.30911 -7.28094,-3.40469c-2.2675,-0.94309 -4.68754,-1.85147 -7.28093,-2.71825c-13.44547,-4.49336 -31.419,-7.84954 -55.43913,-8.97288c-9.96448,-0.47153 -20.79574,-0.53391 -32.18866,-0.19414c-10.40134,0.30511 -21.45449,0.9361 -32.84742,1.87915l-0.16641,0.00694l-77.0878,47.06257a13.431,13.431 0 0 0 -6.2477,9.95758l-0.15952,1.41457l-24.4778,218.71234a13.718,13.718 0 0 0 3.15506,10.40828a12.58506,12.58506 0 0 0 9.56232,4.46564l189.94227,0a11.178,11.178 0 0 1 6.94117,2.46164l8.2933,6.643a12.5385,12.5385 0 0 0 7.60687,2.75981l83.51579,1.36606l0.20108,0a12.4541,12.4541 0 0 0 6.02584,-1.56714l16.10819,-8.94516a11.12148,11.12148 0 0 1 4.78463,-1.38685l180.01245,-9.50679a12.5116,12.5116 0 0 0 9.07691,-4.64594a13.56815,13.56815 0 0 0 3.00949,-10.06158z"/>
  <path id="svg_28" fill="#fff" d="m493.4708,359.66999l-2.52,-33.17l-10.63,-139.86l-1.58,-20.69a21.92382,21.92382 0 0 0 -21.36,-20.31c-38.95,-1 -109.48,0.76 -144.09,23.95a19.1879,19.1879 0 0 1 -25.11,-3.1a55.80676,55.80676 0 0 0 -16.94,-12.65a95.54807,95.54807 0 0 0 -14.56,-5.86q-21.97494,-7.02 -55.46,-8.53l-52.98,-0.31l-0.09,0a14.44224,14.44224 0 0 0 -14.4,13.53l-2.3,36.37l-10.05,159.5a21.97453,21.97453 0 0 0 21.63,23.36c88.93,1.32 127.78,20.09 144.72,35.59a21.96679,21.96679 0 0 0 26.9,2.18c30.75,-20.14 81.87,-25.74 122.56,-26.61c12.46,-0.26 23.94,-0.09 33.56,0.25a21.97354,21.97354 0 0 0 22.7,-23.64z"/>
  <path id="svg_29" fill="#fff" d="m51.98478,405.93277c-0.03319,0 -0.06777,-0.00138 -0.101,-0.00415a1.41553,1.41553 0 0 1 -1.31267,-1.51185l15.30112,-216.05256a1.39921,1.39921 0 0 1 1.51185,-1.31267a1.41554,1.41554 0 0 1 1.31267,1.51186l-15.30109,216.05259a1.41528,1.41528 0 0 1 -1.41088,1.31678z"/>
  <path id="svg_30" fill="#fff" d="m70.39813,397.4343c-0.03319,0 -0.06777,-0.00138 -0.101,-0.00415a1.41553,1.41553 0 0 1 -1.31267,-1.51185l15.30112,-216.05256a1.39921,1.39921 0 0 1 1.51185,-1.31267a1.41554,1.41554 0 0 1 1.31267,1.51186l-15.30109,216.05255a1.41528,1.41528 0 0 1 -1.41088,1.31682z"/>
  <path id="svg_31" fill="#fff" d="m87.39507,393.18507c-0.0332,0 -0.06778,-0.00139 -0.101,-0.00415a1.41553,1.41553 0 0 1 -1.31267,-1.51186l15.30111,-216.05255a1.39921,1.39921 0 0 1 1.51186,-1.31267a1.41553,1.41553 0 0 1 1.31267,1.51185l-15.30109,216.05256a1.4153,1.4153 0 0 1 -1.41088,1.31682z"/>
  <path id="svg_32" fill="#fff" d="m104.39201,384.6866c-0.0332,0 -0.06778,-0.00139 -0.101,-0.00415a1.41554,1.41554 0 0 1 -1.31268,-1.51186l15.30112,-216.05255a1.39921,1.39921 0 0 1 1.51186,-1.31267a1.41554,1.41554 0 0 1 1.31267,1.51185l-15.30109,216.05256a1.4153,1.4153 0 0 1 -1.41088,1.31682z"/>
  <path id="svg_33" fill="#fff" d="m539.22758,407.34918c0.0332,0 0.06778,-0.00138 0.101,-0.00415a1.41553,1.41553 0 0 0 1.31267,-1.51185l-15.30114,-216.05255a1.39922,1.39922 0 0 0 -1.51185,-1.31268a1.41553,1.41553 0 0 0 -1.31267,1.51186l15.30111,216.05255a1.4153,1.4153 0 0 0 1.41088,1.31682z"/>
  <path id="svg_34" fill="#fff" d="m520.81423,394.60148c0.0332,0 0.06778,-0.00139 0.101,-0.00415a1.41553,1.41553 0 0 0 1.31267,-1.51185l-15.30114,-216.05256a1.39921,1.39921 0 0 0 -1.51185,-1.31267a1.41553,1.41553 0 0 0 -1.31267,1.51185l15.30116,216.05256a1.4153,1.4153 0 0 0 1.41083,1.31682z"/>
  <path id="svg_35" fill="#fff" d="m503.81729,380.43736c0.0332,0 0.06778,-0.00138 0.101,-0.00415a1.41553,1.41553 0 0 0 1.31267,-1.51185l-15.30114,-216.05255a1.3992,1.3992 0 0 0 -1.51185,-1.31267a1.41553,1.41553 0 0 0 -1.31267,1.51185l15.3011,216.05255a1.41528,1.41528 0 0 0 1.41089,1.31682z"/>
  <path id="svg_36" fill="#3f3d56" d="m156.21611,187.94632c31.92708,-10.18627 67.54612,-7.48949 97.79249,6.86086a128.767,128.767 0 0 1 24.30154,14.96765c2.12748,1.66973 5.155,-1.317 3.00466,-3.00467a139.18729,139.18729 0 0 0 -97.705,-28.65175a133.69837,133.69837 0 0 0 -28.52335,5.73047c-2.59534,0.828 -1.48609,4.932 1.12962,4.09744l0.00004,0z"/>
  <path id="svg_37" fill="#3f3d56" d="m331.9,211.42321c29.68384,-15.60224 65.22951,-19.00454 97.50383,-10.14806a128.52039,128.52039 0 0 1 26.512,10.54121c2.41182,1.28694 4.56081,-2.37985 2.14467,-3.66908c-30.7598,-16.41326 -67.684,-20.19162 -101.27415,-11.04221a133.65686,133.65686 0 0 0 -27.031,10.64905c-2.42152,1.27278 -0.27623,4.94155 2.14467,3.66909l-0.00002,0z"/>
  <path id="svg_38" fill="#3f3d56" d="m331.9,239.75144c29.68384,-15.60224 65.22951,-19.00454 97.50383,-10.14806a128.51987,128.51987 0 0 1 26.512,10.54122c2.41182,1.28693 4.56081,-2.37985 2.14467,-3.66909c-30.7598,-16.41326 -67.684,-20.19162 -101.27415,-11.04221a133.65686,133.65686 0 0 0 -27.031,10.649c-2.42152,1.27278 -0.27623,4.94155 2.14467,3.66909l-0.00002,0.00005z"/>
  <path id="svg_42" fill="#fff" d="m379.71253,313.45521c-0.33958,0.01417 -0.66567,0.02835 -0.99142,0.04253c-2.36529,-0.84981 -4.7873,-1.60055 -7.23766,-2.25222c-1.58655,-0.42482 -3.20111,-0.80728 -4.816,-1.133c-1.82723,-0.39647 -3.66829,-0.70821 -5.50969,-0.97742a88.11476,88.11476 0 0 0 -10.58055,-0.89217a0.19234,0.19234 0 1 1 0,-0.38246c0.453,0 0.90635,0.01418 1.34552,0.04253a88.23278,88.23278 0 0 1 10.59473,1.034c1.82723,0.29739 3.65445,0.65149 5.4675,1.04813c1.64291,0.36828 3.28583,0.77909 4.90073,1.23227q3.46286,0.97718 6.82684,2.23781z"/>
  <path id="svg_49" fill="#fff" d="m350.60218,266.78821l-0.57311,0.41464c0.19385,-0.14513 0.39538,-0.2812 0.60241,-0.41l-0.0293,-0.00464z"/>
  <path id="svg_52" fill="#3f3d56" d="m156.21611,216.27456c31.92708,-10.18628 67.54612,-7.4895 97.79249,6.86085a128.767,128.767 0 0 1 24.30154,14.96765c2.12748,1.66973 5.155,-1.317 3.00466,-3.00467a139.18734,139.18734 0 0 0 -97.705,-28.65175a133.69837,133.69837 0 0 0 -28.52335,5.73047c-2.59534,0.828 -1.48609,4.932 1.12962,4.09745l0.00004,0z"/>
  <path id="svg_53" fill="#3f3d56" d="m156.21611,244.60279c31.92708,-10.18627 67.54612,-7.4895 97.79249,6.86085a128.767,128.767 0 0 1 24.30154,14.96765c2.12748,1.66973 5.155,-1.317 3.00466,-3.00467a139.18734,139.18734 0 0 0 -97.705,-28.65175a133.69837,133.69837 0 0 0 -28.52335,5.73047c-2.59534,0.828 -1.48609,4.932 1.12962,4.09745l0.00004,0z"/>
  <path id="svg_54" fill="#3f3d56" d="m156.21611,272.93099c31.92708,-10.18627 67.54612,-7.4895 97.79249,6.86085a128.767,128.767 0 0 1 24.30154,14.96765c2.12748,1.66973 5.155,-1.317 3.00466,-3.00467a139.18734,139.18734 0 0 0 -97.705,-28.65175a133.69837,133.69837 0 0 0 -28.52335,5.73047c-2.59534,0.828 -1.48609,4.932 1.12962,4.09745l0.00004,0z"/>
  <path id="svg_55" fill="#3f3d56" d="m156.21611,301.25925c31.92708,-10.18627 67.54612,-7.48949 97.79249,6.86085a128.767,128.767 0 0 1 24.30154,14.96765c2.12748,1.66973 5.155,-1.317 3.00466,-3.00466a139.1873,139.1873 0 0 0 -97.705,-28.65176a133.69837,133.69837 0 0 0 -28.52335,5.73047c-2.59534,0.828 -1.48609,4.932 1.12962,4.09745l0.00004,0z"/>
  <path id="svg_56" fill="#3f3d56" d="m156.21611,329.58748c31.92708,-10.18627 67.54612,-7.48949 97.79249,6.86085a128.767,128.767 0 0 1 24.30154,14.96766c2.12748,1.66973 5.155,-1.317 3.00466,-3.00466a139.1873,139.1873 0 0 0 -97.705,-28.65176a133.69837,133.69837 0 0 0 -28.52335,5.73047c-2.59534,0.828 -1.48609,4.932 1.12962,4.09745l0.00004,-0.00001z"/>
  <path id="svg_57" fill="#f472b6" d="m271.24508,142.36799l0,79.39686c0,1.35218 -2.35766,2.48247 -5.54044,2.78757c-0.55473,0.05545 -1.13722,0.08321 -1.7405,0.08321a14.50725,14.50725 0 0 1 -5.14518,-0.83906a6.62848,6.62848 0 0 1 -0.8876,-0.423c-0.79051,-0.46458 -1.24815,-1.01241 -1.24815,-1.60875l0,-85.5198c2.59339,0.86678 5.01343,1.77516 7.28093,2.71825c2.635,1.09563 5.05504,2.23285 7.28094,3.40472z"/>
  <rect id="svg_58" fill="#e6e6e6" height="256.82971" width="2.08027" y="169.59186" x="299.68351"/>
  <path id="svg_59" fill="#f2f2f2" d="m487.42081,376.55999a22.01957,22.01957 0 0 1 -16.65,6.75c-9.62,-0.34 -21.1,-0.51 -33.56,-0.25l-0.07,-0.06l54,-70l2.33,46.67a22.02245,22.02245 0 0 1 -6.05,16.89z"/>
  <polygon id="svg_60" fill="#ffb6b6" points="352.991 621.21 350.111 644.59 347.911 662.36 347.031 669.53 334.511 669.53 334.511 663.16 334.501 642.08 334.501 621.21 352.991 621.21"/>
  <polygon id="svg_61" fill="#ffb6b6" points="265.691 618.76 262.141 629.72 259.291 638.51 258.801 640.02 256.851 646.03 252.731 658.74 250.681 665.07 239.291 662.87 238.381 662.7 239.121 658.88 239.571 656.55 244.551 630.73 245.361 626.57 245.491 625.9 245.861 623.97 247.541 615.26 259.681 617.6 261.081 617.87 265.691 618.76"/>
  <path id="svg_62" fill="#2f2e41" d="m371.80076,481.97999c-7.16,39.35 -8.95,56.34 -8.95,56.34s5.37,6.26 1.79,9.84s0,10.73 0,10.73l-8.05,86.75l-6.48,-1.05005l-15.61,-2.51l-5.63,-0.91l3.58,-81.38s-3.58,-7.16 -1.79,-8.95c1.79,-1.79 -1.79,-12.52 -1.79,-12.52l-4.47,-84.96l-27.73,93.01s2.68995,3.58 0,6.26c-2.68005,2.68 -8.04,16.1 -8.04,16.1l-16.49,57.7l-1.4,4.9l-8.6,-1.61l-9.36,-1.76l-1.72,-0.31995l-3.06,-0.58l-1.97,-0.37l-0.67,-0.12l-3.24,-0.61l0.98,-4.35l0.51,-2.29l13.95,-61.96l0.32,-1.43l0.34,-1.51s-1.79,-4.47 0.89,-7.16a6.98829,6.98829 0 0 0 1.79,-6.26a2.44073,2.44073 0 0 1 -0.24,-0.3a3.71247,3.71247 0 0 1 -0.64,-1.46c-0.24,-1.12 -0.03,-2.69 1.78,-4.5a7.63588,7.63588 0 0 0 1.27,-1.82c2.72,-5.15 4.09,-16.06 4.09,-16.06s2.42,-86.41 10.34,-99.61a4.2687,4.2687 0 0 1 1.29,-1.45c8.94,-5.36 94.79,0 94.79,0s0.12,0.62 0.31,1.8c1.03005,6.63 3.98001,31 -2.09,64.38z"/>
  <path fill="#ffb6b6" d="m368.98711,323.23137l2.50682,-15.10134l46.16309,7.769l65.4957,4.68612a9.83737,9.83737 0 1 1 -1.67706,10.62413l-40.16962,2.703l-72.31893,-10.68091z" data-name="Path 2938" id="fa90ba82-4976-41ea-9b03-d8a96d925ef6-331"/>
  <path fill="#2563eb" d="m334.48068,312.77863l3.2594,-13.48062s17.70011,-3.25819 31.69385,-0.14082l52.64514,10.10317l-4.26105,31.82339l-83.33734,-28.30512z" data-name="Path 2946" id="fb44d525-e05f-4433-9150-930b9a652ce4-332"/>
  <path fill="#ffb6b6" d="m212.28713,423.78438l29.453,-63.98388l21.49427,-45.26915l18.64142,10.97119l-58.03082,105.32272a9.83732,9.83732 0 1 1 -12.0706,-6.91711q0.25479,-0.0692 0.51308,-0.12458l-0.00035,0.00081z" data-name="Path 2948" id="ed2da19a-1c50-4597-bafc-ed19ebf50383-333"/>
  <path fill="#2563eb" d="m297.22989,295.13459l-14.29627,-6.55925s-2.53461,-0.87961 -8.00126,6.6895s-52.49079,78.99068 -52.49079,78.99068l29.86083,13.49808l44.92749,-92.61901z" data-name="Path 2949" id="a46ff28a-e8a9-4d92-ab46-12a75733fdc3-334"/>
  <path id="svg_63" fill="#2f2e41" d="m369.17081,683.44999l-18.61,-12.86005l0,-8.38995l-2.65,0.16l-13.4,0.8l-3.53,0.21l-2.44,29.22l-0.03,0.41l8.79,0l0.08,-0.41l1.49,-7.88995l3.81,7.88995l0.2,0.41l23.32,0a5.34343,5.34343 0 0 0 2.04,-0.41a5.23693,5.23693 0 0 0 0.93005,-9.13995l-0.00005,-0.00005z"/>
  <path id="svg_64" fill="#2f2e41" d="m269.91081,684.21999l-8.11005,-8.84l-5.66,-6.18l-0.93,-1.02l-0.14,-0.15l-0.45,-0.49l1.87,-8.18l-3.76,-0.62l-13.16,-2.19l-0.71,-0.11l-1.4,-0.24l-0.32,-0.05l-4.49,14.15l-4.07,12.79l-0.44,1.4l5.41,1.23l3.16,0.72l1.56,-3.58l0.17,-0.38l1.02,-2.35l0,-0.01l0.63,-1.42l2.07,8.98l0.36,0.08l0.05,0.01l1.27,0.29l2.48,0.57l17.34,3.96l1.23,0.28a5.26176,5.26176 0 0 0 6.27,-3.95a5.22555,5.22555 0 0 0 -1.24995,-4.7z"/>
  <path stroke="null" id="svg_71" fill="#ffb6b6" d="m330.80742,285.07882a14.09187,29.0569 0 0 1 -9.53942,14.56c-0.22309,0.1 -0.44614,0.18 -0.67418,0.25a14.12481,29.12482 0 1 1 10.2136,-14.81z"/>
  <path id="svg_72" fill="#3f3d56" d="m329.1,272.15144c29.68384,-15.60224 65.22951,-19.00454 97.50383,-10.14806a128.51987,128.51987 0 0 1 26.512,10.54122c2.41182,1.28693 4.56081,-2.37985 2.14467,-3.66909c-30.7598,-16.41326 -67.684,-20.19162 -101.27415,-11.04221a133.65686,133.65686 0 0 0 -27.031,10.649c-2.42152,1.27278 -0.27623,4.94155 2.14467,3.66909l-0.00002,0.00005z"/>
  <path id="svg_65" fill="#ffb6b6" d="m348.57057,257.07882a29.0569,29.0569 0 0 1 -19.66992,14.56c-0.46,0.1 -0.91992,0.18 -1.39014,0.25a29.12482,29.12482 0 1 1 21.06006,-14.81z"/>
  <path id="svg_66" fill="#2f2e41" d="m331.39049,209.94885c-9.52978,-6.55407 -17.92187,-7.55243 -24.81543,-5.69354a9.062,9.062 0 0 0 -3.625,-3.21887c-5.37646,-13.54724 -21.73828,-21.68305 -35.77978,-17.72809c-14.13233,3.98053 -23.8833,19.635 -21.22412,34.0744c1.648,8.95026 7.28076,16.70062 9.54638,25.51483c4.38575,17.06275 -6.313,36.6081 -23.0498,42.10828c15.84668,3.18188 33.29,-6.49768 38.9751,-21.628c2.76123,-7.34906 2.92773,-15.37287 3.2788,-23.2157a76.96923,76.96923 0 0 1 1.97871,-16.07627a34.34932,34.34932 0 0 1 2.5584,-6.84524a23.42431,23.42431 0 0 1 11.21045,-10.87628a8.94125,8.94125 0 0 0 1.30567,8.04938c-3.71631,4.65545 -5.73926,9.69006 -5.73926,12.70514c-7.72022,14.11 3.31982,26.23 17.43018,33.95a28.90829,28.90829 0 0 0 18.46972,3.22l0.59033,-2.52l0.79981,2.27l2.66992,7.61005q4.62012,2.235 9.16016,4.9c-1.14991,-5.4 -2.08008,-10.79 -2.72022,-16.06c-0.88623,-7.17279 2.20313,-17.85126 4.43164,-24.34509a38.33123,38.33123 0 0 0 2.09864,-12.43976l0,-0.18512l2.16992,6.97l7.8999,-3.37c-1.46973,-8.43013 0,-18.00013 -17.62012,-17.17012z"/>
  <path id="svg_73" fill="#3f3d56" d="m329.5,301.75144c29.68384,-15.60224 65.22951,-19.00454 97.50383,-10.14806a128.51987,128.51987 0 0 1 26.512,10.54122c2.41182,1.28693 4.56081,-2.37985 2.14467,-3.66909c-30.7598,-16.41326 -67.684,-20.19162 -101.27415,-11.04221a133.65686,133.65686 0 0 0 -27.031,10.649c-2.42152,1.27278 -0.27623,4.94155 2.14467,3.66909l-0.00002,0.00005z"/>
  <path id="svg_67" fill="#2563eb" d="m277.4934,407.35269a25.54773,25.54773 0 0 0 0,-12.52014c-1.78857,-6.26013 1.78864,-8.943 1.78864,-8.943l0.89428,-96.58472c3.77826,-3.77832 13.90119,-3.83985 19.56446,-3.5459l0,-4.25342a5.90555,5.90555 0 0 1 5.90551,-5.90552l26.189,0a5.90556,5.90556 0 0 1 5.90552,5.90552l0,5.09839l7.68121,0.12085c13.376,0.99634 25.07886,14.20606 25.07886,14.20606l-11.62592,44.71508s3.57721,36.66638 8.04871,41.13794c4.47155,4.47144 2.68292,7.1543 2.68292,7.1543s-2.68292,9.8374 2.68292,13.41455c5.36579,3.57727 1.78858,9.8374 1.78858,9.8374s-96.58466,1.78858 -99.26752,-0.89428c-2.68294,-2.68281 2.68283,-8.94311 2.68283,-8.94311z"/>
 </g>
</svg>